<?xml version="1.0" encoding="UTF-8" standalone="no"?>
<svg
   xmlns:dc="http://purl.org/dc/elements/1.1/"
   xmlns:cc="http://creativecommons.org/ns#"
   xmlns:rdf="http://www.w3.org/1999/02/22-rdf-syntax-ns#"
   xmlns:svg="http://www.w3.org/2000/svg"
   xmlns="http://www.w3.org/2000/svg"
   xmlns:sodipodi="http://sodipodi.sourceforge.net/DTD/sodipodi-0.dtd"
   xmlns:inkscape="http://www.inkscape.org/namespaces/inkscape"
   inkscape:version="1.0rc1 (09960d6, 2020-04-09)"
   height="74.704002"
   width="99.606003"
   sodipodi:docname="noun_Camera_22429.svg"
   id="svg20"
   xml:space="preserve"
   enable-background="new 0 0 100 74.707"
   viewBox="0 0 99.606003 74.704002"
   y="0px"
   x="0px"
   version="1.1"><metadata
     id="metadata26"><rdf:RDF><cc:Work
         rdf:about=""><dc:format>image/svg+xml</dc:format><dc:type
           rdf:resource="http://purl.org/dc/dcmitype/StillImage" /></cc:Work></rdf:RDF></metadata><defs
     id="defs24" /><sodipodi:namedview
     inkscape:current-layer="svg20"
     inkscape:window-maximized="1"
     inkscape:window-y="23"
     inkscape:window-x="0"
     inkscape:cy="46.691875"
     inkscape:cx="49.803"
     inkscape:zoom="7.48"
     showgrid="false"
     id="namedview22"
     inkscape:window-height="1035"
     inkscape:window-width="1920"
     inkscape:pageshadow="2"
     inkscape:pageopacity="0"
     guidetolerance="10"
     gridtolerance="10"
     objecttolerance="10"
     borderopacity="1"
     bordercolor="#666666"
     pagecolor="#ffffff" /><path
     inkscape:connector-curvature="0"
     id="path10"
     d="m 60.405,24.411 c -10.543,0 -19.092,8.549 -19.092,19.093 0,10.543 8.548,19.093 19.092,19.093 10.543,0 19.093,-8.55 19.093,-19.093 C 79.497,32.96 70.948,24.411 60.405,24.411 Z" /><path
     inkscape:connector-curvature="0"
     id="path12"
     d="m 28.904,8.309 v -0.74 c 0,-1.834 -1.487,-3.32 -3.32,-3.32 h -5.961 c -1.833,0 -3.32,1.487 -3.32,3.32 v 0.74 z" /><path
     inkscape:connector-curvature="0"
     id="path14"
     d="M 91.305,10.3 H 81.176 C 77.856,10.3 77.856,0 74.535,0 H 46.275 C 42.954,0 42.954,10.3 39.634,10.3 H 8.3 C 3.717,10.3 0,14.017 0,18.601 v 47.803 c 0,4.584 3.717,8.302 8.3,8.3 h 83.005 c 4.584,0 8.301,-3.717 8.301,-8.301 V 18.601 c 0,-4.583 -3.717,-8.301 -8.301,-8.301 z m -30.9,58.106 c -13.751,0 -24.902,-11.152 -24.902,-24.902 0,-13.75 11.152,-24.902 24.902,-24.902 13.75,0 24.901,11.151 24.902,24.902 0,13.75 -11.152,24.902 -24.902,24.902 z" /></svg>
