<svg width="99.61" height="74.7" enable-background="new 0 0 100 74.707" version="1.1" viewBox="0 0 99.61 74.7" xml:space="preserve" xmlns="http://www.w3.org/2000/svg"><path d="m60.4 24.41c-10.54 0-19.09 8.549-19.09 19.09 0 10.54 8.548 19.09 19.09 19.09 10.54 0 19.09-8.55 19.09-19.09-1e-3 -10.54-8.55-19.09-19.09-19.09z"/><path d="m28.9 8.309v-0.74c0-1.834-1.487-3.32-3.32-3.32h-5.961c-1.833 0-3.32 1.487-3.32 3.32v0.74z"/><path d="m91.3 10.3h-10.13c-3.32 0-3.32-10.3-6.641-10.3h-28.26c-3.321 0-3.321 10.3-6.641 10.3h-31.33c-4.583 0-8.3 3.717-8.3 8.301v47.8c0 4.584 3.717 8.302 8.3 8.3h83c4.584 0 8.301-3.717 8.301-8.301v-47.8c0-4.583-3.717-8.301-8.301-8.301zm-30.9 58.11c-13.75 0-24.9-11.15-24.9-24.9s11.15-24.9 24.9-24.9 24.9 11.15 24.9 24.9c0 13.75-11.15 24.9-24.9 24.9z"/></svg>
