<svg width="11.64" height="11.55" version="1.1" viewBox="0 0 11.64 11.55" xmlns="http://www.w3.org/2000/svg"><g transform="translate(-.5301 -284.9)"><path d="m7.956 285.1a0.2313 0.2313 0 1 0-0.4626 0 0.2313 0.2313 0 1 0 0.4626 0z"/><path d="m7.425 285.9a0.3516 0.3516 0 1 0-0.7031 0 0.3516 0.3516 0 1 0 0.7031 0z"/><path d="m8.981 286.3a0.3792 0.3792 0 1 0-0.7583 0 0.3792 0.3792 0 1 0 0.7583 0z"/><path d="m9.927 287.3a0.2594 0.2594 0 1 0-0.5187 0 0.2594 0.2594 0 1 0 0.5187 0z"/><path d="m5.948 288.4a0.5574 0.5574 0 0 0 0.367 1.053l2.587-0.9018a0.5574 0.5574 0 0 0-0.3669-1.053z"/><path d="m11.1 290a0.8836 0.8836 0 1 1 0.369 0 0.02787 0.02787 0 0 0-0.01 0.05 0.3048 0.3048 0 0 1-0.3256 0.5145 1.31 1.31 0 0 1-1.019 0.136l-0.7407 0.7755a0.2787 0.2787 0 0 0-0.077 0.1925v1.091a0.3484 0.3484 0 0 1-0.6967 0v-1.37a0.2787 0.2787 0 0 1 0.077-0.1925l0.3511-0.3676a0.05574 0.05574 0 0 0-0.058-0.091l-1.443 0.4728-2.254 1.736-2.045 0.8393a0.2787 0.2787 0 0 0-0.168 0.206 5.404 5.404 0 0 1-1.05 2.32 0.2787 0.2787 0 0 1-0.3328 0.083 1.033 1.033 0 0 1-0.2902-0.1934 0.2787 0.2787 0 0 1 0.044-0.4392 2.515 2.515 0 0 0 1.179-1.936 0.5574 0.5574 0 0 1 0.2629-0.4299l2.05-1.266 1.218-1.151a0.08361 0.08361 0 0 0-0.085-0.1397l-1.268 0.4421a0.5574 0.5574 0 0 1-0.6984-0.3131l-0.7931-1.915a0.1393 0.1393 0 0 0-0.177-0.077 4.845 4.845 0 0 1-2.351 0.2528 0.2787 0.2787 0 0 1-0.24-0.276v-0.2378a0.2787 0.2787 0 0 1 0.4041-0.2489 2.383 2.383 0 0 0 2.358-0.1211 0.2787 0.2787 0 0 1 0.3942 0.1l0.9464 1.713a0.1393 0.1393 0 0 0 0.1678 0.064l4.719-1.645a0.2787 0.2787 0 0 1 0.3526 0.1651l0.473 1.26a0.5574 0.5574 0 0 1-0.1187 0.5809 1.171 1.171 0 0 0 0.802-0.1196 0.3048 0.3048 0 0 1 0.082-0.4156 0.02787 0.02787 0 0 0-0.01-0.05z"/></g></svg>
